# xmcd
#
# Track frame offsets: 
#        150
#        17672
#        35812
#        50797
#        67110
#        83137
#        103807
#        122237
#        146667
#        163392
#        184865
#
# Disc length: 2709 seconds
#
# Revision: 1
# Processed by: cddbd v1.5.2PL0 Copyright (c) Steve Scherf et al.
# Submitted via: ExactAudioCopy v0.95b3
#
DISCID=a90a930b
DTITLE=Miles Davis - Miles Davis Volume 2
DYEAR=1900
DGENRE=Jazz
TTITLE0=Tempus Fugit
TTITLE1=Tempus Fugit (alternate take)
TTITLE2=C.T.A. (alternate take)
TTITLE3=C.T.A.
TTITLE4=I Waited For You
TTITLE5=The Leap
TTITLE6=Lazy Susan
TTITLE7=Well You Needn't
TTITLE8=Take-off
TTITLE9=Weirdo
TTITLE10=It Never Enterd My Mind
EXTD=
EXTT0=
EXTT1=
EXTT2=
EXTT3=
EXTT4=
EXTT5=
EXTT6=
EXTT7=
EXTT8=
EXTT9=
EXTT10=
PLAYORDER=
